# Blender 3.2.0
# www.blender.org
mtllib base_link.mtl
o foot_link_1
v -0.182506 0.068735 -0.095690
v -0.179237 0.071510 -0.094500
v -0.181018 0.070318 -0.095148
v -0.177250 0.072249 -0.093777
v -0.183626 0.066839 -0.096097
v -0.184321 0.064725 -0.096350
v -0.175160 0.072500 -0.093016
v -0.184556 0.062500 -0.096436
v -0.058427 0.068735 -0.050529
v -0.056939 0.070318 -0.049987
v -0.055157 0.071510 -0.049339
v -0.059546 0.066839 -0.050936
v -0.053171 0.072249 -0.048616
v -0.060241 0.064725 -0.051189
v -0.184321 -0.064725 -0.096350
v -0.183626 -0.066839 -0.096097
v -0.184556 -0.062500 -0.096436
v -0.060477 0.062500 -0.051275
v -0.181018 -0.070318 -0.095148
v -0.179237 -0.071510 -0.094500
v -0.182506 -0.068735 -0.095690
v -0.177250 -0.072249 -0.093777
v -0.175160 -0.072500 -0.093016
v -0.060477 -0.062500 -0.051275
v -0.060241 -0.064725 -0.051189
v -0.059546 -0.066839 -0.050936
v -0.058427 -0.068735 -0.050529
v -0.056939 -0.070318 -0.049987
v -0.051080 -0.072500 -0.047855
v -0.053171 -0.072249 -0.048616
v -0.055157 -0.071510 -0.049339
v -0.051080 0.072500 -0.047855
v -0.173830 0.072249 -0.103174
v -0.177598 0.070318 -0.104545
v -0.175817 0.071510 -0.103897
v -0.180901 0.064725 -0.105747
v -0.179086 0.068735 -0.105087
v -0.180206 0.066839 -0.105494
v -0.171739 0.072500 -0.102413
v -0.181136 0.062500 -0.105833
v -0.180206 -0.066839 -0.105494
v -0.180901 -0.064725 -0.105747
v -0.181136 -0.062500 -0.105833
v -0.177598 -0.070318 -0.104545
v -0.179086 -0.068735 -0.105087
v -0.173830 -0.072249 -0.103174
v -0.175817 -0.071510 -0.103897
v -0.171739 -0.072500 -0.102413
v 0.059646 0.070318 -0.018196
v 0.055878 0.072249 -0.019567
v 0.057864 0.071510 -0.018844
v 0.053787 0.072500 -0.020328
v 0.061134 0.068735 -0.017654
v 0.062253 0.066839 -0.017247
v 0.062948 0.064725 -0.016994
v 0.063184 0.062500 -0.016908
v 0.053787 -0.072500 -0.020328
v 0.063184 -0.062500 -0.016908
v 0.062253 -0.066839 -0.017247
v 0.062948 -0.064725 -0.016994
v 0.061134 -0.068735 -0.017654
v 0.059646 -0.070318 -0.018196
v 0.055878 -0.072249 -0.019567
v 0.057864 -0.071510 -0.018844
v -0.079139 -0.062500 -0.000000
v -0.073819 -0.071160 -0.000000
v -0.071252 -0.072159 -0.000000
v -0.075823 -0.069754 -0.000000
v -0.077284 -0.068142 -0.000000
v -0.078351 -0.066278 -0.000000
v -0.078940 -0.064425 -0.000000
v -0.068498 -0.072500 -0.000000
v -0.077980 0.067040 0.000000
v -0.078845 0.064834 0.000000
v -0.079139 0.062500 0.000000
v -0.076590 0.068994 0.000000
v 0.057030 -0.062500 -0.000000
v 0.055870 -0.067040 -0.000000
v 0.056736 -0.064834 -0.000000
v 0.054480 -0.068994 -0.000000
v 0.052643 -0.070590 -0.000000
v 0.050461 -0.071739 -0.000000
v 0.048464 -0.072308 -0.000000
v 0.046388 -0.072500 -0.000000
v -0.074753 0.070590 0.000000
v -0.072570 0.071739 0.000000
v -0.070574 0.072308 0.000000
v -0.068498 0.072500 0.000000
v 0.057030 0.062500 0.000000
v 0.046388 0.072500 0.000000
v 0.049142 0.072159 0.000000
v 0.056241 0.066278 0.000000
v 0.056831 0.064425 0.000000
v 0.051709 0.071160 0.000000
v 0.055174 0.068142 0.000000
v 0.053713 0.069754 0.000000
vn -0.3421 -0.0000 0.9397
vn -0.3420 -0.0000 0.9397
vn -0.3420 0.0001 0.9397
vn 0.3420 0.0001 -0.9397
vn 0.3421 -0.0000 -0.9397
vn 0.3419 0.0001 -0.9398
vn 0.3420 -0.0000 -0.9397
vn 0.3422 -0.0000 -0.9396
vn 0.3422 0.0001 -0.9396
vn 0.3420 -0.0001 -0.9397
vn -0.4373 0.0403 -0.8984
vn -0.9125 0.0403 0.4072
vn -0.9029 0.1626 0.3979
vn -0.4358 0.1626 -0.8852
vn -0.8521 0.3170 0.4164
vn -0.3852 0.3170 -0.8667
vn -0.7703 0.4555 0.4462
vn -0.3032 0.4555 -0.8370
vn -0.6616 0.5712 0.4858
vn -0.1946 0.5712 -0.7974
vn -0.5314 0.6583 0.5332
vn -0.0644 0.6583 -0.7500
vn -0.3863 0.7123 0.5860
vn 0.0808 0.7123 -0.6972
vn -0.2755 0.7182 0.6390
vn 0.1997 0.7182 -0.6666
vn 0.1997 -0.7182 -0.6666
vn -0.2755 -0.7182 0.6390
vn -0.3863 -0.7123 0.5860
vn 0.0807 -0.7123 -0.6972
vn -0.0644 -0.6583 -0.7500
vn -0.5314 -0.6583 0.5332
vn -0.1946 -0.5712 -0.7974
vn -0.6616 -0.5712 0.4858
vn -0.3032 -0.4555 -0.8370
vn -0.7703 -0.4555 0.4462
vn -0.3851 -0.3170 -0.8667
vn -0.8521 -0.3170 0.4164
vn -0.4358 -0.1626 -0.8852
vn -0.9029 -0.1626 0.3979
vn -0.9125 -0.0403 0.4072
vn -0.4373 -0.0403 -0.8984
vn -0.9397 -0.0000 -0.3420
vn -0.0000 -0.0000 1.0000
vn 0.1155 -0.6964 0.7083
vn 0.0256 -0.7122 0.7015
vn 0.2753 -0.7180 -0.6393
vn 0.3862 -0.7118 -0.5867
vn 0.2402 -0.6397 0.7301
vn 0.5314 -0.6576 -0.5339
vn 0.3608 -0.5524 0.7515
vn 0.6615 -0.5707 -0.4865
vn 0.4636 -0.4360 0.7713
vn 0.7702 -0.4552 -0.4468
vn 0.5397 -0.3012 0.7861
vn 0.8520 -0.3168 -0.4168
vn 0.5866 -0.1538 0.7951
vn 0.9029 -0.1624 -0.3981
vn 0.5875 -0.0372 0.8084
vn 0.9125 -0.0403 -0.4072
vn -0.0000 -1.0000 -0.0000
vn -0.3928 -0.6631 0.6372
vn -0.0324 -0.9994 0.0072
vn -0.0546 -0.7276 0.6838
vn -0.2064 -0.7364 0.6443
vn -0.5280 -0.6130 0.5878
vn -0.3882 -0.6866 0.6147
vn -0.6493 -0.5320 0.5436
vn -0.5443 -0.5947 0.5917
vn -0.7505 -0.4242 0.5067
vn -0.6695 -0.4725 0.5731
vn -0.8267 -0.2952 0.4790
vn -0.7615 -0.3264 0.5599
vn -0.8739 -0.1513 0.4619
vn -0.8167 -0.1664 0.5525
vn -0.8974 -0.0388 0.4394
vn -0.8264 -0.0421 0.5615
vn -0.1529 0.7358 0.6597
vn -0.0408 0.7232 0.6895
vn -0.0323 0.9995 0.0071
vn -0.3929 0.6632 0.6370
vn -0.3031 0.7132 0.6320
vn -0.5281 0.6129 0.5878
vn -0.4636 0.6488 0.6035
vn -0.6493 0.5318 0.5437
vn -0.6128 0.5372 0.5795
vn -0.7505 0.4241 0.5069
vn -0.7329 0.3851 0.5609
vn -0.8266 0.2951 0.4793
vn -0.8112 0.2013 0.5490
vn -0.8738 0.1513 0.4622
vn -0.8276 0.0512 0.5590
vn -0.8974 0.0389 0.4395
vn -0.0000 1.0000 -0.0000
vn 0.2759 0.7185 -0.6385
vn 0.0342 0.7136 0.6997
vn 0.1533 0.6882 0.7091
vn 0.3854 0.7127 -0.5861
vn 0.5312 0.6578 -0.5340
vn 0.3035 0.6008 0.7395
vn 0.6613 0.5706 -0.4869
vn 0.4179 0.4915 0.7640
vn 0.7700 0.4549 -0.4474
vn 0.4999 0.3740 0.7812
vn 0.8517 0.3166 -0.4176
vn 0.5555 0.2502 0.7930
vn 0.9026 0.1622 -0.3989
vn 0.5871 0.1250 0.7998
vn 0.9123 0.0399 -0.4075
vn 0.5853 0.0305 0.8102
vn 0.9397 -0.0000 0.3420
s 0
usemtl GRAY92.001
f 1//1 2//1 3//1
f 1//2 4//2 2//2
f 5//1 6//1 1//1
f 6//2 7//2 1//2
f 1//2 7//2 4//2
f 6//2 8//2 7//2
f 9//2 10//2 7//2
f 10//2 11//2 7//2
f 7//2 12//2 9//2
f 11//2 13//2 7//2
f 7//2 14//2 12//2
f 15//2 16//2 17//2
f 8//2 18//2 7//2
f 7//2 18//2 14//2
f 19//3 20//3 21//3
f 20//2 22//2 21//2
f 21//2 23//2 16//2
f 16//2 23//2 17//2
f 22//2 23//2 21//2
f 17//2 24//2 8//2
f 8//2 24//2 18//2
f 23//2 24//2 17//2
f 23//2 25//2 24//2
f 23//2 26//2 25//2
f 23//2 27//2 26//2
f 23//2 28//2 27//2
f 23//2 29//2 30//2
f 23//2 30//2 31//2
f 23//2 31//2 28//2
f 32//2 7//2 13//2
f 33//4 34//4 35//4
f 36//5 37//5 34//5
f 36//6 38//6 37//6
f 36//7 34//7 33//7
f 39//7 40//7 36//7
f 39//7 36//7 33//7
f 41//8 42//8 43//8
f 44//9 45//9 41//9
f 46//10 47//10 44//10
f 46//7 44//7 41//7
f 48//7 43//7 40//7
f 48//7 41//7 43//7
f 48//7 40//7 39//7
f 48//7 46//7 41//7
f 49//7 50//7 51//7
f 49//7 52//7 50//7
f 53//7 52//7 49//7
f 54//7 52//7 53//7
f 55//7 52//7 54//7
f 56//7 52//7 55//7
f 57//7 39//7 52//7
f 57//7 56//7 58//7
f 57//7 48//7 39//7
f 57//7 52//7 56//7
f 59//7 58//7 60//7
f 61//7 58//7 59//7
f 62//7 63//7 57//7
f 62//7 64//7 63//7
f 62//7 57//7 58//7
f 62//7 58//7 61//7
s 1
f 40//11 8//12 6//13
f 36//14 6//13 5//15
f 36//14 40//11 6//13
f 38//16 5//15 1//17
f 38//16 36//14 5//15
f 37//18 1//17 3//19
f 37//18 38//16 1//17
f 34//20 3//19 2//21
f 34//20 37//18 3//19
f 35//22 2//21 4//23
f 35//22 34//20 2//21
f 33//24 4//23 7//25
f 33//24 35//22 4//23
f 39//26 33//24 7//25
f 48//27 23//28 22//29
f 46//30 48//27 22//29
f 47//31 22//29 20//32
f 47//31 46//30 22//29
f 44//33 20//32 19//34
f 44//33 47//31 20//32
f 45//35 19//34 21//36
f 45//35 44//33 19//34
f 41//37 21//36 16//38
f 41//37 45//35 21//36
f 42//39 16//38 15//40
f 42//39 15//40 17//41
f 42//39 41//37 16//38
f 43//42 42//39 17//41
s 0
f 40//43 43//43 17//43
f 40//43 17//43 8//43
f 65//44 66//44 67//44
f 65//44 68//44 66//44
f 65//44 69//44 68//44
f 65//44 70//44 69//44
f 65//44 71//44 70//44
f 72//44 65//44 67//44
f 73//44 74//44 75//44
f 76//44 73//44 75//44
f 77//44 78//44 79//44
f 77//44 80//44 78//44
f 77//44 81//44 80//44
f 77//44 82//44 81//44
f 77//44 83//44 82//44
f 77//44 84//44 83//44
f 77//44 72//44 84//44
f 77//44 65//44 72//44
f 85//44 76//44 75//44
f 86//44 85//44 75//44
f 87//44 86//44 75//44
f 88//44 87//44 75//44
f 89//44 90//44 88//44
f 89//44 75//44 65//44
f 89//44 65//44 77//44
f 89//44 88//44 75//44
f 91//44 90//44 89//44
f 92//44 89//44 93//44
f 94//44 91//44 89//44
f 95//44 89//44 92//44
f 96//44 94//44 89//44
f 96//44 89//44 95//44
s 1
f 83//45 84//46 57//47
f 83//45 57//47 63//48
f 82//49 63//48 64//50
f 82//49 83//45 63//48
f 81//51 64//50 62//52
f 81//51 82//49 64//50
f 80//53 62//52 61//54
f 80//53 81//51 62//52
f 78//55 61//54 59//56
f 78//55 80//53 61//54
f 79//57 59//56 60//58
f 79//57 78//55 59//56
f 77//59 60//58 58//60
f 77//59 79//57 60//58
s 0
f 29//61 23//61 48//61
f 57//61 29//61 48//61
f 84//61 72//61 29//61
f 84//61 29//61 57//61
s 1
f 30//62 29//63 72//64
f 30//62 72//64 67//65
f 31//66 67//65 66//67
f 31//66 30//62 67//65
f 28//68 66//67 68//69
f 28//68 31//66 66//67
f 27//70 68//69 69//71
f 27//70 28//68 68//69
f 26//72 69//71 70//73
f 26//72 27//70 69//71
f 25//74 70//73 71//75
f 25//74 26//72 70//73
f 24//76 71//75 65//77
f 24//76 25//74 71//75
f 87//78 88//79 32//80
f 87//78 32//80 13//81
f 86//82 13//81 11//83
f 86//82 87//78 13//81
f 85//84 11//83 10//85
f 85//84 86//82 11//83
f 76//86 10//85 9//87
f 76//86 85//84 10//85
f 73//88 9//87 12//89
f 73//88 76//86 9//87
f 74//90 12//89 14//91
f 74//90 73//88 12//89
f 75//92 14//91 18//93
f 75//92 74//90 14//91
s 0
f 32//94 90//94 52//94
f 88//94 90//94 32//94
f 39//94 32//94 52//94
f 7//94 32//94 39//94
s 1
f 52//95 90//96 91//97
f 50//98 52//95 91//97
f 51//99 91//97 94//100
f 51//99 50//98 91//97
f 49//101 94//100 96//102
f 49//101 51//99 94//100
f 53//103 96//102 95//104
f 53//103 49//101 96//102
f 54//105 95//104 92//106
f 54//105 53//103 95//104
f 55//107 92//106 93//108
f 55//107 54//105 92//106
f 56//109 93//108 89//110
f 56//109 55//107 93//108
s 0
f 89//111 77//111 58//111
f 56//111 89//111 58//111
f 75//43 24//43 65//43
f 75//43 18//43 24//43
