# Blender v3.2.0 OBJ File: ''
# www.blender.org
mtllib link0.mtl
o link0
v 0.013129 0.057521 -0.032000
v 0.000000 0.059000 -0.032000
v 0.000000 0.059000 -0.015000
v 0.013606 0.057410 -0.015000
v 0.025599 0.053157 -0.032000
v 0.026479 0.052724 -0.015000
v 0.036786 0.046128 -0.032000
v 0.037924 0.045197 -0.015000
v 0.046128 0.036786 -0.032000
v 0.047325 0.035232 -0.015000
v 0.053157 0.025599 -0.032000
v 0.054175 0.023369 -0.015000
v 0.057521 0.013129 -0.032000
v 0.058104 0.010245 -0.015000
v 0.059000 0.000000 -0.032000
v 0.058900 -0.003431 -0.015000
v 0.057521 -0.013129 -0.032000
v 0.056521 -0.016921 -0.015000
v 0.053157 -0.025599 -0.032000
v 0.051096 -0.029500 -0.015000
v 0.046128 -0.036786 -0.032000
v 0.042915 -0.040488 -0.015000
v 0.036786 -0.046128 -0.032000
v 0.032421 -0.049294 -0.015000
v 0.025599 -0.053157 -0.032000
v 0.020179 -0.055442 -0.015000
v 0.013129 -0.057521 -0.032000
v 0.006849 -0.058601 -0.015000
v 0.000000 -0.059000 -0.032000
v -0.006849 -0.058601 -0.015000
v -0.013129 -0.057521 -0.032000
v -0.020179 -0.055442 -0.015000
v -0.025599 -0.053157 -0.032000
v -0.032421 -0.049294 -0.015000
v -0.036786 -0.046128 -0.032000
v -0.042915 -0.040488 -0.015000
v -0.046128 -0.036786 -0.032000
v -0.051096 -0.029500 -0.015000
v -0.053157 -0.025599 -0.032000
v -0.056521 -0.016921 -0.015000
v -0.057521 -0.013129 -0.032000
v -0.058900 -0.003431 -0.015000
v -0.059000 0.000000 -0.032000
v -0.058104 0.010245 -0.015000
v -0.057521 0.013129 -0.032000
v -0.054175 0.023369 -0.015000
v -0.053157 0.025599 -0.032000
v -0.047325 0.035232 -0.015000
v -0.046128 0.036786 -0.032000
v -0.037924 0.045197 -0.015000
v -0.036786 0.046128 -0.032000
v -0.026479 0.052724 -0.015000
v -0.025599 0.053157 -0.032000
v -0.013606 0.057410 -0.015000
v -0.013129 0.057521 -0.032000
v 0.073872 0.040013 0.000000
v 0.075000 0.030000 -0.015000
v 0.073872 0.040013 -0.015000
v 0.075000 0.030000 0.000000
v 0.070544 0.049525 0.000000
v 0.070544 0.049525 -0.015000
v 0.065182 0.058057 -0.015000
v 0.065182 0.058057 0.000000
v 0.058057 0.065182 0.000000
v 0.058057 0.065182 -0.015000
v 0.049525 0.070544 -0.015000
v 0.049525 0.070544 0.000000
v 0.040013 0.073872 0.000000
v 0.040013 0.073872 -0.015000
v 0.030000 0.075000 0.000000
v 0.030000 0.075000 -0.015000
v 0.075000 -0.030000 -0.015000
v 0.075000 -0.030000 -0.000000
v 0.040013 -0.073872 -0.000000
v 0.030000 -0.075000 -0.015000
v 0.040013 -0.073872 -0.015000
v 0.030000 -0.075000 -0.000000
v 0.049525 -0.070544 -0.000000
v 0.049525 -0.070544 -0.015000
v 0.058057 -0.065182 -0.000000
v 0.058057 -0.065182 -0.015000
v 0.065182 -0.058057 -0.000000
v 0.065182 -0.058057 -0.015000
v 0.070544 -0.049525 -0.015000
v 0.070544 -0.049525 -0.000000
v 0.073872 -0.040013 -0.000000
v 0.073872 -0.040013 -0.015000
v -0.090000 -0.075000 -0.015000
v -0.090000 -0.075000 -0.000000
v -0.090000 0.075000 -0.015000
v -0.090000 0.075000 0.000000
vn -0.0000 -0.0000 -1.0000
vn 1.0000 -0.0000 0.0000
vn 0.0000 -1.0000 0.0000
vn -1.0000 0.0000 0.0000
vn 0.0000 1.0000 0.0000
vn -0.0000 -0.0000 1.0000
vn 0.1617 0.7123 -0.6830
vn -0.0000 0.7306 -0.6828
vn 0.0000 0.6797 -0.7335
vn 0.1565 0.6617 -0.7332
vn 0.3158 0.6580 -0.6836
vn 0.3053 0.6083 -0.7326
vn 0.4539 0.5709 -0.6841
vn 0.4378 0.5218 -0.7321
vn 0.5692 0.4554 -0.6846
vn 0.5469 0.4070 -0.7317
vn 0.6560 0.3171 -0.6849
vn 0.6264 0.2700 -0.7312
vn 0.7098 0.1631 -0.6853
vn 0.6722 0.1183 -0.7309
vn 0.7280 0.0010 -0.6856
vn 0.6817 -0.0400 -0.7306
vn 0.7097 -0.1610 -0.6858
vn 0.6543 -0.1962 -0.7303
vn 0.6559 -0.3149 -0.6860
vn 0.5917 -0.3419 -0.7301
vn 0.5691 -0.4530 -0.6862
vn 0.4970 -0.4692 -0.7299
vn 0.4539 -0.5683 -0.6863
vn 0.3755 -0.5713 -0.7298
vn 0.3159 -0.6550 -0.6864
vn 0.2338 -0.6426 -0.7297
vn 0.1620 -0.7089 -0.6865
vn 0.0793 -0.6792 -0.7297
vn 0.0000 -0.7271 -0.6865
vn -0.0793 -0.6792 -0.7297
vn -0.1620 -0.7089 -0.6865
vn -0.2338 -0.6426 -0.7297
vn -0.3159 -0.6550 -0.6864
vn -0.3755 -0.5713 -0.7298
vn -0.4539 -0.5683 -0.6863
vn -0.4970 -0.4692 -0.7299
vn -0.5691 -0.4530 -0.6862
vn -0.5917 -0.3419 -0.7301
vn -0.6559 -0.3149 -0.6860
vn -0.6543 -0.1962 -0.7303
vn -0.7097 -0.1610 -0.6858
vn -0.6817 -0.0400 -0.7306
vn -0.7280 0.0010 -0.6856
vn -0.6722 0.1183 -0.7309
vn -0.7098 0.1631 -0.6853
vn -0.6264 0.2700 -0.7312
vn -0.6560 0.3171 -0.6849
vn -0.5469 0.4070 -0.7317
vn -0.5692 0.4554 -0.6846
vn -0.4378 0.5218 -0.7321
vn -0.4539 0.5709 -0.6841
vn -0.3053 0.6083 -0.7326
vn -0.3158 0.6580 -0.6836
vn -0.1565 0.6617 -0.7332
vn -0.1617 0.7123 -0.6830
vn 0.7123 0.1626 0.6828
vn 0.7182 0.0403 -0.6947
vn 0.7123 0.1626 -0.6828
vn 0.7182 0.0403 0.6947
vn 0.6583 0.3170 0.6828
vn 0.6583 0.3170 -0.6828
vn 0.5712 0.4556 -0.6828
vn 0.5712 0.4556 0.6828
vn 0.4556 0.5712 0.6828
vn 0.4556 0.5712 -0.6828
vn 0.3170 0.6583 -0.6828
vn 0.3170 0.6583 0.6828
vn 0.1626 0.7123 0.6828
vn 0.1626 0.7123 -0.6828
vn 0.0403 0.7182 0.6947
vn 0.0403 0.7182 -0.6947
vn 0.1626 -0.7123 0.6828
vn 0.0403 -0.7182 -0.6947
vn 0.1626 -0.7123 -0.6828
vn 0.0403 -0.7182 0.6947
vn 0.3170 -0.6583 0.6828
vn 0.3170 -0.6583 -0.6828
vn 0.4556 -0.5712 0.6828
vn 0.4556 -0.5712 -0.6828
vn 0.5712 -0.4556 0.6828
vn 0.5712 -0.4556 -0.6828
vn 0.6583 -0.3170 -0.6828
vn 0.6583 -0.3170 0.6828
vn 0.7123 -0.1626 0.6828
vn 0.7123 -0.1626 -0.6828
vn 0.7182 -0.0403 0.6947
vn 0.7182 -0.0403 -0.6947
usemtl WHITE.001
s off
f 11//1 7//1 9//1
f 1//1 5//1 7//1
f 1//1 7//1 11//1
f 2//1 1//1 11//1
f 19//1 11//1 13//1
f 19//1 13//1 15//1
f 19//1 15//1 17//1
f 53//1 55//1 2//1
f 51//1 53//1 2//1
f 25//1 19//1 21//1
f 25//1 21//1 23//1
f 47//1 49//1 51//1
f 47//1 51//1 2//1
f 31//1 25//1 27//1
f 31//1 27//1 29//1
f 31//1 2//1 11//1
f 31//1 11//1 19//1
f 31//1 19//1 25//1
f 31//1 47//1 2//1
f 41//1 43//1 45//1
f 41//1 45//1 47//1
f 39//1 31//1 33//1
f 39//1 47//1 31//1
f 39//1 41//1 47//1
f 37//1 33//1 35//1
f 37//1 39//1 33//1
f 59//2 72//2 57//2
f 59//2 73//2 72//2
f 77//3 88//3 75//3
f 77//3 89//3 88//3
f 89//4 90//4 88//4
f 89//4 91//4 90//4
f 91//5 71//5 90//5
f 91//5 70//5 71//5
f 85//6 78//6 80//6
f 85//6 80//6 82//6
f 74//6 78//6 85//6
f 77//6 85//6 86//6
f 77//6 86//6 73//6
f 77//6 74//6 85//6
f 60//6 59//6 56//6
f 63//6 59//6 60//6
f 70//6 73//6 59//6
f 70//6 63//6 64//6
f 70//6 64//6 67//6
f 70//6 67//6 68//6
f 70//6 77//6 73//6
f 70//6 59//6 63//6
f 91//6 89//6 77//6
f 91//6 77//6 70//6
f 81//1 22//1 83//1
f 83//1 22//1 84//1
f 75//1 24//1 76//1
f 76//1 24//1 79//1
f 79//1 24//1 81//1
f 81//1 24//1 22//1
f 84//1 20//1 87//1
f 87//1 20//1 72//1
f 22//1 20//1 84//1
f 75//1 26//1 24//1
f 20//1 18//1 72//1
f 75//1 28//1 26//1
f 18//1 16//1 72//1
f 75//1 30//1 28//1
f 14//1 57//1 16//1
f 16//1 57//1 72//1
f 57//1 12//1 58//1
f 14//1 12//1 57//1
f 58//1 10//1 61//1
f 12//1 10//1 58//1
f 10//1 62//1 61//1
f 62//1 8//1 65//1
f 10//1 8//1 62//1
f 34//1 88//1 36//1
f 32//1 88//1 34//1
f 30//1 88//1 32//1
f 75//1 88//1 30//1
f 8//1 66//1 65//1
f 88//1 38//1 36//1
f 8//1 69//1 66//1
f 6//1 69//1 8//1
f 88//1 40//1 38//1
f 6//1 71//1 69//1
f 4//1 71//1 6//1
f 88//1 42//1 40//1
f 4//1 3//1 71//1
f 3//1 54//1 71//1
f 54//1 90//1 71//1
f 52//1 90//1 54//1
f 50//1 90//1 52//1
f 48//1 90//1 50//1
f 46//1 90//1 48//1
f 44//1 90//1 46//1
f 42//1 90//1 44//1
f 88//1 90//1 42//1
s 1
f 1//7 2//8 3//9
f 1//7 3//9 4//10
f 5//11 4//10 6//12
f 5//11 1//7 4//10
f 7//13 6//12 8//14
f 7//13 5//11 6//12
f 9//15 8//14 10//16
f 9//15 7//13 8//14
f 11//17 10//16 12//18
f 11//17 9//15 10//16
f 13//19 12//18 14//20
f 13//19 11//17 12//18
f 15//21 14//20 16//22
f 15//21 13//19 14//20
f 17//23 16//22 18//24
f 17//23 15//21 16//22
f 19//25 18//24 20//26
f 19//25 17//23 18//24
f 21//27 19//25 20//26
f 21//27 20//26 22//28
f 23//29 21//27 22//28
f 23//29 22//28 24//30
f 25//31 23//29 24//30
f 25//31 24//30 26//32
f 27//33 25//31 26//32
f 27//33 26//32 28//34
f 29//35 27//33 28//34
f 29//35 28//34 30//36
f 31//37 29//35 30//36
f 31//37 30//36 32//38
f 33//39 31//37 32//38
f 33//39 32//38 34//40
f 35//41 33//39 34//40
f 35//41 34//40 36//42
f 37//43 35//41 36//42
f 37//43 36//42 38//44
f 39//45 37//43 38//44
f 39//45 38//44 40//46
f 41//47 40//46 42//48
f 41//47 39//45 40//46
f 43//49 42//48 44//50
f 43//49 41//47 42//48
f 45//51 44//50 46//52
f 45//51 43//49 44//50
f 47//53 46//52 48//54
f 47//53 45//51 46//52
f 49//55 48//54 50//56
f 49//55 47//53 48//54
f 51//57 50//56 52//58
f 51//57 49//55 50//56
f 53//59 52//58 54//60
f 53//59 51//57 52//58
f 55//61 54//60 3//9
f 55//61 53//59 54//60
f 2//8 55//61 3//9
f 56//62 57//63 58//64
f 56//62 59//65 57//63
f 60//66 58//64 61//67
f 60//66 61//67 62//68
f 60//66 56//62 58//64
f 63//69 60//66 62//68
f 64//70 62//68 65//71
f 64//70 65//71 66//72
f 64//70 63//69 62//68
f 67//73 64//70 66//72
f 68//74 66//72 69//75
f 68//74 67//73 66//72
f 70//76 69//75 71//77
f 70//76 68//74 69//75
f 74//78 75//79 76//80
f 74//78 77//81 75//79
f 78//82 76//80 79//83
f 78//82 74//78 76//80
f 80//84 79//83 81//85
f 80//84 78//82 79//83
f 82//86 81//85 83//87
f 82//86 83//87 84//88
f 82//86 80//84 81//85
f 85//89 82//86 84//88
f 86//90 84//88 87//91
f 86//90 85//89 84//88
f 73//92 87//91 72//93
f 73//92 86//90 87//91
