# Blender v3.2.0 OBJ File: ''
# www.blender.org
mtllib link0.mtl
o link0-mirror_link0-mirror.001
v 0.000000 0.059000 0.015000
v 0.000000 0.059000 0.032000
v 0.013129 0.057521 0.032000
v 0.013606 0.057410 0.015000
v 0.025599 0.053157 0.032000
v 0.026479 0.052724 0.015000
v 0.036786 0.046128 0.032000
v 0.037924 0.045197 0.015000
v 0.046128 0.036786 0.032000
v 0.047325 0.035232 0.015000
v 0.053157 0.025599 0.032000
v 0.054175 0.023369 0.015000
v 0.057521 0.013129 0.032000
v 0.058104 0.010245 0.015000
v 0.059000 0.000000 0.032000
v 0.058900 -0.003431 0.015000
v 0.057521 -0.013129 0.032000
v 0.056521 -0.016921 0.015000
v 0.053157 -0.025599 0.032000
v 0.051096 -0.029500 0.015000
v 0.046128 -0.036786 0.032000
v 0.042915 -0.040488 0.015000
v 0.036786 -0.046128 0.032000
v 0.032421 -0.049294 0.015000
v 0.025599 -0.053157 0.032000
v 0.020179 -0.055442 0.015000
v 0.013129 -0.057521 0.032000
v 0.006849 -0.058601 0.015000
v 0.000000 -0.059000 0.032000
v -0.006849 -0.058601 0.015000
v -0.013129 -0.057521 0.032000
v -0.020179 -0.055442 0.015000
v -0.025599 -0.053157 0.032000
v -0.032421 -0.049294 0.015000
v -0.036786 -0.046128 0.032000
v -0.042915 -0.040488 0.015000
v -0.046128 -0.036786 0.032000
v -0.051096 -0.029500 0.015000
v -0.053157 -0.025599 0.032000
v -0.056521 -0.016921 0.015000
v -0.057521 -0.013129 0.032000
v -0.058900 -0.003431 0.015000
v -0.059000 0.000000 0.032000
v -0.058104 0.010245 0.015000
v -0.057521 0.013129 0.032000
v -0.054175 0.023369 0.015000
v -0.053157 0.025599 0.032000
v -0.047325 0.035232 0.015000
v -0.046128 0.036786 0.032000
v -0.037924 0.045197 0.015000
v -0.036786 0.046128 0.032000
v -0.026479 0.052724 0.015000
v -0.025599 0.053157 0.032000
v -0.013606 0.057410 0.015000
v -0.013129 0.057521 0.032000
v 0.073872 0.040013 0.015000
v 0.075000 0.030000 0.015000
v 0.075000 0.030000 -0.000000
v 0.073872 0.040013 -0.000000
v 0.070544 0.049525 0.015000
v 0.070544 0.049525 -0.000000
v 0.065182 0.058057 -0.000000
v 0.065182 0.058057 0.015000
v 0.058057 0.065182 0.015000
v 0.058057 0.065182 -0.000000
v 0.049525 0.070544 0.015000
v 0.049525 0.070544 -0.000000
v 0.040013 0.073872 -0.000000
v 0.040013 0.073872 0.015000
v 0.030000 0.075000 0.015000
v 0.030000 0.075000 -0.000000
v 0.075000 -0.030000 0.000000
v 0.075000 -0.030000 0.015000
v 0.030000 -0.075000 0.015000
v 0.030000 -0.075000 0.000000
v 0.040013 -0.073872 0.000000
v 0.040013 -0.073872 0.015000
v 0.049525 -0.070544 0.015000
v 0.049525 -0.070544 0.000000
v 0.058057 -0.065182 0.000000
v 0.058057 -0.065182 0.015000
v 0.065182 -0.058057 0.015000
v 0.065182 -0.058057 0.000000
v 0.070544 -0.049525 0.015000
v 0.070544 -0.049525 0.000000
v 0.073872 -0.040013 0.015000
v 0.073872 -0.040013 0.000000
v -0.090000 -0.075000 0.000000
v -0.090000 -0.075000 0.015000
v -0.090000 0.075000 -0.000000
v -0.090000 0.075000 0.015000
vn -0.0000 -0.0000 1.0000
vn 1.0000 0.0000 0.0000
vn 0.0000 -1.0000 0.0000
vn -1.0000 -0.0000 0.0000
vn 0.0000 1.0000 0.0000
vn 0.0000 -0.0000 -1.0000
vn -0.0000 0.6797 0.7335
vn -0.0000 0.7306 0.6828
vn 0.1617 0.7123 0.6830
vn 0.1565 0.6617 0.7332
vn 0.3158 0.6580 0.6836
vn 0.3053 0.6083 0.7326
vn 0.4539 0.5709 0.6841
vn 0.4378 0.5218 0.7321
vn 0.5692 0.4554 0.6846
vn 0.5469 0.4070 0.7317
vn 0.6560 0.3171 0.6849
vn 0.6264 0.2700 0.7312
vn 0.7098 0.1631 0.6853
vn 0.6722 0.1183 0.7309
vn 0.7280 0.0010 0.6856
vn 0.6817 -0.0400 0.7306
vn 0.7097 -0.1610 0.6858
vn 0.6543 -0.1962 0.7303
vn 0.6559 -0.3149 0.6860
vn 0.5917 -0.3419 0.7301
vn 0.5691 -0.4530 0.6862
vn 0.4970 -0.4692 0.7299
vn 0.4539 -0.5683 0.6863
vn 0.3755 -0.5713 0.7298
vn 0.3159 -0.6550 0.6864
vn 0.2338 -0.6426 0.7297
vn 0.1620 -0.7089 0.6865
vn 0.0793 -0.6792 0.7297
vn 0.0000 -0.7271 0.6865
vn -0.0793 -0.6792 0.7297
vn -0.1620 -0.7089 0.6865
vn -0.2338 -0.6426 0.7297
vn -0.3159 -0.6550 0.6864
vn -0.3755 -0.5713 0.7298
vn -0.4539 -0.5683 0.6863
vn -0.4970 -0.4692 0.7299
vn -0.5691 -0.4530 0.6862
vn -0.5917 -0.3419 0.7301
vn -0.6559 -0.3149 0.6860
vn -0.6543 -0.1962 0.7303
vn -0.7097 -0.1610 0.6858
vn -0.6817 -0.0400 0.7306
vn -0.7280 0.0010 0.6856
vn -0.6722 0.1183 0.7309
vn -0.7098 0.1631 0.6853
vn -0.6264 0.2700 0.7312
vn -0.6560 0.3171 0.6849
vn -0.5469 0.4070 0.7317
vn -0.5692 0.4554 0.6846
vn -0.4378 0.5218 0.7321
vn -0.4539 0.5709 0.6841
vn -0.3053 0.6083 0.7326
vn -0.3158 0.6580 0.6836
vn -0.1565 0.6617 0.7332
vn -0.1617 0.7123 0.6830
vn 0.7123 0.1626 0.6828
vn 0.7182 0.0403 0.6947
vn 0.7182 0.0403 -0.6947
vn 0.7123 0.1626 -0.6828
vn 0.6583 0.3170 0.6828
vn 0.6583 0.3170 -0.6828
vn 0.5712 0.4556 -0.6828
vn 0.5712 0.4556 0.6828
vn 0.4556 0.5712 0.6828
vn 0.4556 0.5712 -0.6828
vn 0.3170 0.6583 0.6828
vn 0.3170 0.6583 -0.6828
vn 0.1626 0.7123 -0.6828
vn 0.1626 0.7123 0.6828
vn 0.0403 0.7182 0.6947
vn 0.0403 0.7182 -0.6947
vn 0.0403 -0.7182 0.6947
vn 0.0403 -0.7182 -0.6947
vn 0.1626 -0.7123 -0.6828
vn 0.1626 -0.7123 0.6828
vn 0.3170 -0.6583 0.6828
vn 0.3170 -0.6583 -0.6828
vn 0.4556 -0.5712 -0.6828
vn 0.4556 -0.5712 0.6828
vn 0.5712 -0.4556 0.6828
vn 0.5712 -0.4556 -0.6828
vn 0.6583 -0.3170 0.6828
vn 0.6583 -0.3170 -0.6828
vn 0.7123 -0.1626 0.6828
vn 0.7123 -0.1626 -0.6828
vn 0.7182 -0.0403 0.6947
vn 0.7182 -0.0403 -0.6947
usemtl WHITE.016
s off
f 7//1 11//1 9//1
f 5//1 3//1 7//1
f 7//1 3//1 11//1
f 3//1 2//1 11//1
f 11//1 19//1 13//1
f 13//1 19//1 15//1
f 15//1 19//1 17//1
f 55//1 53//1 2//1
f 53//1 51//1 2//1
f 19//1 25//1 21//1
f 21//1 25//1 23//1
f 49//1 47//1 51//1
f 51//1 47//1 2//1
f 25//1 31//1 27//1
f 27//1 31//1 29//1
f 2//1 31//1 11//1
f 11//1 31//1 19//1
f 19//1 31//1 25//1
f 47//1 31//1 2//1
f 43//1 41//1 45//1
f 45//1 41//1 47//1
f 31//1 39//1 33//1
f 47//1 39//1 31//1
f 41//1 39//1 47//1
f 33//1 37//1 35//1
f 39//1 37//1 33//1
f 72//2 58//2 73//2
f 73//2 58//2 57//2
f 88//3 75//3 89//3
f 89//3 75//3 74//3
f 90//4 88//4 91//4
f 91//4 88//4 89//4
f 71//5 90//5 70//5
f 70//5 90//5 91//5
f 79//6 85//6 80//6
f 80//6 85//6 83//6
f 79//6 76//6 85//6
f 85//6 75//6 87//6
f 87//6 75//6 72//6
f 76//6 75//6 85//6
f 58//6 61//6 59//6
f 58//6 62//6 61//6
f 72//6 71//6 58//6
f 62//6 71//6 65//6
f 65//6 71//6 67//6
f 67//6 71//6 68//6
f 75//6 71//6 72//6
f 58//6 71//6 62//6
f 88//6 90//6 75//6
f 75//6 90//6 71//6
f 22//1 81//1 82//1
f 22//1 82//1 84//1
f 24//1 74//1 77//1
f 24//1 77//1 78//1
f 24//1 78//1 81//1
f 24//1 81//1 22//1
f 20//1 84//1 86//1
f 20//1 86//1 73//1
f 20//1 22//1 84//1
f 26//1 74//1 24//1
f 18//1 20//1 73//1
f 28//1 74//1 26//1
f 16//1 18//1 73//1
f 30//1 74//1 28//1
f 57//1 14//1 16//1
f 57//1 16//1 73//1
f 12//1 57//1 56//1
f 12//1 14//1 57//1
f 10//1 56//1 60//1
f 10//1 12//1 56//1
f 63//1 10//1 60//1
f 8//1 63//1 64//1
f 8//1 10//1 63//1
f 89//1 34//1 36//1
f 89//1 32//1 34//1
f 89//1 30//1 32//1
f 89//1 74//1 30//1
f 66//1 8//1 64//1
f 38//1 89//1 36//1
f 69//1 8//1 66//1
f 69//1 6//1 8//1
f 40//1 89//1 38//1
f 70//1 6//1 69//1
f 70//1 4//1 6//1
f 42//1 89//1 40//1
f 1//1 4//1 70//1
f 54//1 1//1 70//1
f 91//1 54//1 70//1
f 91//1 52//1 54//1
f 91//1 50//1 52//1
f 91//1 48//1 50//1
f 91//1 46//1 48//1
f 91//1 44//1 46//1
f 91//1 42//1 44//1
f 91//1 89//1 42//1
s 1
f 1//7 2//8 3//9
f 4//10 3//9 5//11
f 4//10 1//7 3//9
f 6//12 5//11 7//13
f 6//12 4//10 5//11
f 8//14 7//13 9//15
f 8//14 6//12 7//13
f 10//16 9//15 11//17
f 10//16 8//14 9//15
f 12//18 11//17 13//19
f 12//18 10//16 11//17
f 14//20 13//19 15//21
f 14//20 12//18 13//19
f 16//22 15//21 17//23
f 16//22 14//20 15//21
f 18//24 17//23 19//25
f 18//24 16//22 17//23
f 20//26 19//25 21//27
f 20//26 18//24 19//25
f 22//28 20//26 21//27
f 22//28 21//27 23//29
f 24//30 22//28 23//29
f 24//30 23//29 25//31
f 26//32 24//30 25//31
f 26//32 25//31 27//33
f 28//34 26//32 27//33
f 28//34 27//33 29//35
f 30//36 29//35 31//37
f 30//36 28//34 29//35
f 32//38 31//37 33//39
f 32//38 30//36 31//37
f 34//40 33//39 35//41
f 34//40 32//38 33//39
f 36//42 35//41 37//43
f 36//42 34//40 35//41
f 38//44 37//43 39//45
f 38//44 36//42 37//43
f 40//46 39//45 41//47
f 40//46 38//44 39//45
f 42//48 41//47 43//49
f 42//48 40//46 41//47
f 44//50 43//49 45//51
f 44//50 42//48 43//49
f 46//52 45//51 47//53
f 46//52 44//50 45//51
f 48//54 47//53 49//55
f 48//54 46//52 47//53
f 50//56 49//55 51//57
f 50//56 48//54 49//55
f 52//58 51//57 53//59
f 52//58 50//56 51//57
f 54//60 53//59 55//61
f 54//60 52//58 53//59
f 1//7 55//61 2//8
f 1//7 54//60 55//61
f 56//62 57//63 58//64
f 56//62 58//64 59//65
f 60//66 59//65 61//67
f 60//66 61//67 62//68
f 60//66 56//62 59//65
f 63//69 60//66 62//68
f 64//70 62//68 65//71
f 64//70 63//69 62//68
f 66//72 65//71 67//73
f 66//72 67//73 68//74
f 66//72 64//70 65//71
f 69//75 66//72 68//74
f 70//76 68//74 71//77
f 70//76 69//75 68//74
f 74//78 75//79 76//80
f 77//81 74//78 76//80
f 78//82 76//80 79//83
f 78//82 79//83 80//84
f 78//82 77//81 76//80
f 81//85 78//82 80//84
f 82//86 80//84 83//87
f 82//86 81//85 80//84
f 84//88 83//87 85//89
f 84//88 82//86 83//87
f 86//90 85//89 87//91
f 86//90 84//88 85//89
f 73//92 87//91 72//93
f 73//92 86//90 87//91
